<svg xmlns="http://www.w3.org/2000/svg" viewBox="0 0 14.73 14.97"><path d="M6.07,7.73v0C6.07,7.77,6.07,7.73,6.07,7.73Z" fill="#fff"/><path d="M6.75,7.31h0a.52.52,0,0,1-.06.3A.49.49,0,0,0,6.75,7.31Z" fill="#fff"/><path d="M7.62,7.3h0l-.06-.06s0,0,0,0a.76.76,0,0,0-.35-.09h0a.72.72,0,0,1,.34.05A1.2,1.2,0,1,0,7.62,7.3Z" fill="#fff"/><path d="M7.49,7.32h0V7h0v.31h0Z" fill="#fff"/><path d="M7.49,7.3V7h0v.31h0Z" fill="#fff"/><path d="M7.31,7.68l.1-.15s-.11.16-.07.12C7.23,7.79,7.25,7.76,7.31,7.68Z" fill="#fff"/><path d="M7.21,7.8l.06-.06Z" fill="#fff"/><path d="M7.38,7.58l-.11.16.05-.07Z" fill="#fff"/><path d="M7.43,7.49c0-.08.07-.18,0,0,0-.13,0-.13,0-.13S7.5,7.34,7.43,7.49Z" fill="#fff"/><path d="M7.31,6.88a.78.78,0,0,0-.21-.09A1.07,1.07,0,0,0,7.23,7C7.16,6.89,7.45,7.05,7.31,6.88Z" fill="#fff"/><path d="M6.55,8h.09l.12,0Z" fill="#fff"/><path d="M6.64,8h.07s0,0-.06,0Z" fill="#fff"/><path d="M7.41,7.61a.39.39,0,0,0-.1.08l0,0,0,0a1,1,0,0,0,.09-.13.83.83,0,0,1-.11.15s0,0,0,0l.12-.08Z" fill="#fff"/><path d="M5.81,8.08,5.48,8a3,3,0,0,1,.5.19Z" fill="#fff"/><path d="M5.78,8.41c-.25-.16-.5-.08-.64-.2,0,.11.23.23.41.38C5.46,8.48,5.51,8.46,5.78,8.41Z" fill="#fff"/><path d="M5.8,8.82a3.36,3.36,0,0,0-.25-.23A1.5,1.5,0,0,0,5.8,8.82Z" fill="#fff"/><path d="M6.63,8.09a2.17,2.17,0,0,0-.44,0l.43,0Z" fill="#fff"/><path d="M6.63,8.13h0a.31.31,0,0,0,0,.09Z" fill="#fff"/><path d="M6.63,8.08h0S6.68,8.09,6.63,8.08Z" fill="#fff"/><path d="M7.13,7.88a1.06,1.06,0,0,1,.37-.09A.89.89,0,0,0,8,7.64,6.06,6.06,0,0,0,7.13,7.88Z" fill="#fff"/><path d="M7.17,8.08l.1-.1a2.67,2.67,0,0,1-.4,0A1.76,1.76,0,0,1,7.17,8.08Z" fill="#fff"/><path d="M7.3,8.16l-.13-.08,0,.05Z" fill="#fff"/><path d="M6.27,8.77a.3.3,0,0,1,.11.31.42.42,0,0,0,.24-.23C6.5,8.79,6.29,8.67,6.27,8.77Z" fill="#fff"/><path d="M6.51,8.43l0,0S6.58,8.45,6.51,8.43Z" fill="#fff"/><polygon points="6.39 9.69 6.37 9.67 6.37 9.66 6.39 9.69" fill="#fff"/><path d="M6.7,8.87c.11-.06,0-.16-.08-.24a.41.41,0,0,1,0,.22S6.71,8.9,6.7,8.87Z" fill="#fff"/><path d="M5.9,9.05l.24.06C6,9.07,5.81,9,5.9,9.05Z" fill="#fff"/><path d="M6.41,8.44h0C6.3,8.42,6.34,8.43,6.41,8.44Z" fill="#fff"/><path d="M6.41,8.44a2.09,2.09,0,0,0,.21.19.38.38,0,0,0-.09-.18Z" fill="#fff"/><path d="M7.23,11.91c-.06-.4,0-.8.46-.64,0-.21-.25-.51-.58-.83-.16-.16-.34-.32-.49-.49s-.36-.43-.25-.28c0,0,0,0,.16.27a1,1,0,0,0,.25.29.64.64,0,0,1,.32.36c-.07.3-.24,0-.37-.18a.93.93,0,0,1,.13.62,2.24,2.24,0,0,0,0,.84,1.31,1.31,0,0,0,.29-.34C7.17,11.64,7.09,11.85,7.23,11.91Z" fill="#fff"/><path d="M6.27,9.47l0-.06a.25.25,0,0,1-.15-.09L6,9.26a1.58,1.58,0,0,1,.13.13c.19.22.21.27.22.27l-.12-.15-.06-.07s0,0,0,0h0Z" fill="#fff"/><path d="M6.36,9.24c.36.25.41.51.86.67.11-.22-.22-.33-.32-.53-.07.35-.17-.19-.49-.11a.37.37,0,0,1,0-.19.88.88,0,0,1-.24,0h0c.06,0,.09,0,0,0h0l.13.09c-.11,0-.1,0-.13-.09l-.06,0h0c0,.11,0,.22.08.3S6.34,9.37,6.36,9.24Z" fill="#fff"/><path d="M8.91,7.66a.14.14,0,0,1-.1,0C8.87,7.72,8.91,7.73,8.91,7.66Z" fill="#fff"/><path d="M8.67,7.9c-.06,0-.24-.05-.2-.16s.2,0,.34,0a.38.38,0,0,0-.52,0l.07,0a1.22,1.22,0,0,1-.74.33A3.19,3.19,0,0,0,8.67,7.9Z" fill="#fff"/><path d="M7.68,8.84c0,.14.05.3.07.45l.42-.08L8,9.15C8.12,9,7.84,8.91,7.68,8.84Z" fill="#fff"/><path d="M6.42,9.74l0-.06a2.43,2.43,0,0,1,.14.22A1.84,1.84,0,0,0,6.42,9.74Z" fill="#fff"/><polygon points="6.57 10.04 6.57 10.04 6.57 10.02 6.57 10.04" fill="#fff"/><path d="M4.88,3.2,5,2.94A1,1,0,0,0,4.88,3.2Z" fill="#fff"/><path d="M3.62,4.58l.13.15C3.71,4.6,3.67,4.52,3.62,4.58Z" fill="#fff"/><path d="M6.52,5.57c.25.37.51,1,.33.52l-.2-.51C6.64,5.7,6.59,5.66,6.52,5.57Z" fill="#fff"/><path d="M8.21,9.44l.1.07-.06-.27,0-.17A3.66,3.66,0,0,0,8.21,9.44Z" fill="#fff"/><path d="M8.83,11.39l-.41,0A.67.67,0,0,0,8.83,11.39Z" fill="#fff"/><path d="M13.38,3.48l.52,0C13.64,3.08,13.57,3.38,13.38,3.48Z" fill="#fff"/><path d="M4.29,10.44a2.06,2.06,0,0,1,.64-.28A2,2,0,0,0,4.29,10.44Z" fill="#fff"/><path d="M7,6.75a.37.37,0,0,0-.09-.2A.37.37,0,0,0,7,6.75Z" fill="#fff"/><path d="M5.78,9.94l-.1,0h.05l-.18,0a5.67,5.67,0,0,0-.62.15A4.71,4.71,0,0,1,5.65,10l.25,0c.11,0,0,0,0,0Z" fill="#fff"/><path d="M2.22,3.53H2.3S2.24,3.49,2.22,3.53Z" fill="#fff"/><path d="M9.62,4.65a1,1,0,0,1-.21.07S9.51,4.72,9.62,4.65Z" fill="#fff"/><path d="M6.1,10.33Z" fill="#fff"/><path d="M6.43,10.39l-.21,0Z" fill="#fff"/><path d="M3.08,8.83h0C3,8.86,3,8.85,3.08,8.83Z" fill="#fff"/><path d="M6.24,10.36s-.07,0-.12,0Z" fill="#fff"/><path d="M6.21,10.35a.26.26,0,0,0,.12,0Z" fill="#fff"/><path d="M6.08,10.32h0Z" fill="#fff"/><path d="M7.84,13.81l0,0C7.65,14,7.72,13.94,7.84,13.81Z" fill="#fff"/><path d="M9,.73H9v0Z" fill="#fff"/><path d="M9.67.79c-.42.35-.5.2-.65,0-.06.46-.13.91-.22,1.36A13.91,13.91,0,0,1,9.67.79Z" fill="#fff"/><path d="M8.7,1.58a5.07,5.07,0,0,0-.54-.36C8.93.5,9.53.8,9,.21c-.16.68-.76.71-1.36.86s-1.18.4-1,1.09L6.15,2c.11,0,.1-.12.21-.15-.92-.29-.22,1.18-1,1.51-.29.1-.59.1-.5-.19A5.3,5.3,0,0,0,4.55,4c-.16.14-.29-.07-.13-.21a7.85,7.85,0,0,0-.64,1l0,0L4,5.66c-.3.14-.07-.18-.25-.2a4.63,4.63,0,0,0,0,.65c-.43.1-.55-.49-.28-.86-.74-.06-.76.15-.7.41s.12.59-.48,1.16c0-.21,0-.43,0-.65C1.44,6.4,1.51,7,.88,7.79a6.79,6.79,0,0,1,.93-.72c.39-.23.75-.28.83.06a.58.58,0,0,0-.06.77c-.5,0-.45.38-.44.81l-.65.09c.18.47.52.35.82.53,0,.5-.45.8-.81,1.1.08.46.22.21.39,0s.38-.41.57,0a1.05,1.05,0,0,0,.23.7,1.07,1.07,0,0,0,.27.25l.17.11,0,0s0,0,0,0l-.29.27-.58.54C1.55,13,.79,13.73,0,14.46l2.07-1.73,1-.86.25-.21,0,0h0l.07,0,.16.08a3.49,3.49,0,0,0,.34.15c.48.59-.33.24-.22.54a1.43,1.43,0,0,0,.71-.17c.08.05,0,.18-.07.24.4,0,.32-.54.84-.56.19-.31.31,0,.54.24s.6.49.94,0c.12.15-.11.42-.1.66a4,4,0,0,0,.78-.69,3.24,3.24,0,0,0,.47-.94,3,3,0,0,0,.55.12c-.46-.25-.15-1.17-.21-1.93a1,1,0,0,0-.27-.16c.06-.2.11-.39.15-.58.05,0,.1.15.13.37V8.91c.09,0,.1,0,.2.17a2.12,2.12,0,0,1,.2.63,1.49,1.49,0,0,1-.31-.2,6.81,6.81,0,0,0,.32,1.42.78.78,0,0,1,.1-.35.67.67,0,0,0,.07.31s0-.16,0-.41q.22.27.48.54l-.11-.31a3.87,3.87,0,0,0,1-.69A5.21,5.21,0,0,0,9.76,8.1a7,7,0,0,1-.52-1.28,3.74,3.74,0,0,0,1.54-.15c-.38.23-.36.45-.31.77a1.72,1.72,0,0,1-.08,1.11c.21-.36.46-.2.51,0A6.58,6.58,0,0,0,10.73,7c.51,0,.46-.32.73-.74-.79.33-.73-.24-.79-.66,0-.16-.06-.3-.15-.36.29-.2.6-.3.62.15a1.28,1.28,0,0,1,0,.19,1.17,1.17,0,0,0,.15-.25C11.4,5,11.07,5,10.79,5s-.49,0-.26-.43c0,.11,0,.21.14.14-.28-.08-.21-.87.05-1l0,.11a2.24,2.24,0,0,0-.6-1.31c-.33-.31-.71-.36-.92,0a8.74,8.74,0,0,1,.63-1.07,7.8,7.8,0,0,0-1,1A5.37,5.37,0,0,0,8,3.64,15.92,15.92,0,0,0,8.39,1.9C8.51,1.31,8.66.78,9,.74A.62.62,0,0,0,8.25.42c.12.15.09,1.18-.06,1.18C7.91.62,8,1,7.47.23c.18.19-.09,1.29-.32,1.23A7,7,0,0,1,7.22.22a5.8,5.8,0,0,0-.65,1.13A1.62,1.62,0,0,0,6.28.11c.11.19-.68.11-.85.31.13,0,.25.09.37.15C4.91.69,5.49,2.37,5,2.69c0-.26-.44-1.45-.86-1.32a16.43,16.43,0,0,0,.47,1.81c.27.81.66,1.6.74,1.92L5,4.9a4.27,4.27,0,0,0,.18.54A6.65,6.65,0,0,1,4.09,3.59,5.62,5.62,0,0,1,3.7,1.53c-.38,0-.29-.27-.64.13-.32-.1-.08-.6,0-.72a5.64,5.64,0,0,0-1,.83c.48.45,0,1.33.45,1.64a6.81,6.81,0,0,1,.2-1.6A3.13,3.13,0,0,1,3.3,3.08a1.84,1.84,0,0,1,0,1.25c-.3,0-.94-.85-1.12-1,.13.25.06,1-.1,1C2,4.16,2,4,1.91,3.8c-.2.16-.08.48,0,.75s.16.51-.22.69c-.08.16-1,.38-.59.52a9.71,9.71,0,0,1,3.64.74,2.93,2.93,0,0,0-.48.21,3.71,3.71,0,0,1-.74.35c-.63.14-1.36-.56-1.9-.44a1,1,0,0,1,.44.27c-.17.13-.55-.15-.51.2.66.14-.14.67.55.23.16.34-.18.32-.18.71a2.56,2.56,0,0,1,1.65.74,1.52,1.52,0,0,0-.51.06c-.07.63-.41.94-.34,1.61-.17.07-.27.5-.59.41.15.1.39.13.52.37-.12.4-.22.28-.34.1s-.24-.36-.49,0c.2-.05.4.11.65.29a1.63,1.63,0,0,0,.84.34c.1-.3-.05-.41-.26-.56a7.78,7.78,0,0,1-.67-.49,9.34,9.34,0,0,1,1.26-.14,1,1,0,0,0,.49-.19l.06-.07c.06-.07,0,0,0,0l-.06.11v0s.08-.06,0-.19A1.28,1.28,0,0,0,4,10c-.15-.29-.36-.42,0-.35a7,7,0,0,1,1.25.76c0,.43-.6.2-.71.31a1.38,1.38,0,0,0,.36,0c.06.19-.08.48-.28.4.2.15.52,0,.78-.32a4.91,4.91,0,0,0,.65-1.09l.29-.56-.7.27a1.51,1.51,0,0,0-.35.14c0,.28.11.55.34.53a.42.42,0,0,1,0-.19c.21.09.26.26.36.32l.08.05h0a.72.72,0,0,0,.35,0l.28-.07.11,0s0,0,0,0l-.5.35c.13-.12.27-.25.09-.2.14,0,0,.07-.12.23s0,.29.26,0a1.07,1.07,0,0,1,.25-.34l.08-.07,0,0a.85.85,0,0,0-.11.14.66.66,0,0,0-.1.3s0,0,0-.16a.77.77,0,0,1,.12-.23c.11-.12.14-.13.09-.1a1.06,1.06,0,0,1-.37.13l-.2,0h.1a.87.87,0,0,1-.33,0c-.08-.05.05,0,.08.11l0,0-1.95-1-.1,0,2.05,1s0-.07,0,0v0L4,9.42H4l.07,0,.15.05a3.84,3.84,0,0,1-.55-.15l-.19-.07a1,1,0,0,0,.17.06,2,2,0,0,1-.32-.12c-.14-.08,0,0,.19.16s.41.48.26.29a2.14,2.14,0,0,1,.38.73h0a.61.61,0,0,1,0,.2l.06-.12,0,0,0,0h0s-.12.15-.07.08h0a1.31,1.31,0,0,1,.51-.27,3.51,3.51,0,0,1,.62-.17l.13,0h.06l.13,0c-.12,0-.27-.15-.14-.47l.39-.05c-.14-.23.4-.64,0-.75,1-.17.31-1,.56-1.39L6,7.22A.64.64,0,0,0,6,7v-.1l0,0-.2-.25-.43-.14c-.3-.33.4-.29.44-.49.14.13.08.15,0,.12.48.2.35,0,.25-.29s-.15-.69.17-.4c-.06-.22,0-.2.11-.1v0h0l.18.22a1.06,1.06,0,0,0-.18-.23A.63.63,0,0,0,6.42,5l.23.56s0,0,0,0c.11.19,0-.3-.23-.72a2.65,2.65,0,0,0,0-.4c.3.93.16-.42.44.61,0-.53.33-.43.43-1.49,0,.15,0,.22,0,.22.13.14.22.29.36,0l-.06.78A5.77,5.77,0,0,1,8,3.73,2,2,0,0,1,7.73,5c.21-.33.3-.34.36-.37s.13-.05.38-.25l-.19.37c.06.06.41-.22.27.14a2.57,2.57,0,0,0-.09.87,1.93,1.93,0,0,1-.12.84A1.07,1.07,0,0,1,8.13,7c.31-.1.22,0,.12.06s-.22.16,0,.19c-.14,0-.23.06-.32,0a.26.26,0,0,1-.09.24c0,.06-.06.1,0,.3-.11-.07-.13-.17-.2-.21s.07.14,0,.1-.07-.11-.11-.17a3.47,3.47,0,0,0,.44,1c-.2,0-.2,0-.17.49a.34.34,0,0,1-.11-.43c-.07.11-.45.19-.46.7,0-.11-.14.05-.18.13-.25.07-.26,0-.54.11l0,.09c-.3.72-.31.19-.56.22l0-.07c-.13-.29-.19-.32-.21-.28s-.1.07,0,0a.73.73,0,0,1,0-.22l-.36.32c-.42.3-.39.07-.25-.21s.38-.58.21-.65a2.29,2.29,0,0,0-.23.21c-.16,0,.14-.29.5-.51s.78-.37.84-.42.11,0,.17,0c.55-.28-.53.09-.6-.12.29,0,.7,0,.77-.11s-.08-.07-.21-.2-.19-.31.07-.29c-.19,0-.4-.07-.47-.24s.24-.13.39-.14.23,0,.08-.34a.38.38,0,0,1,.12.09,8,8,0,0,0,.13-.92c.3.58.38.33.57.06s.44-.54.36.17a2.17,2.17,0,0,1,.42-.11l-.05.15c.2.1.43-.21.72-.5,0,.11-.1.22-.15.29.23.44.19.33,1.09.07l-.38.38c.15-.06.09.2,0,.44s-.14.44.17.54a.75.75,0,0,1-.22,0c.32.13,0,.46-.22.6s-.17.13-.11.21a1.64,1.64,0,0,0,.68.39,3.25,3.25,0,0,1,.3.51c.32-.48.72.34,1.08.21,0,.31-.74.41-.72.1h.1c-.81-.44-.6.5-1.16.17a1.9,1.9,0,0,1-1,.86,4.87,4.87,0,0,1-1.06.19,5.83,5.83,0,0,0,.25.7H7.43c-.09-.16-.14-.55,0-.55-.12-.39-.21.37-.24.54-.2-.14-.14-.37-.09-.54s.11-.33.07-.34a.21.21,0,0,1-.1.06l0,.09c-.1.28-.13.63-.36.55s0-.45-.05-.49,0-.07-.07,0a1.73,1.73,0,0,1-.27-.15,4,4,0,0,0,0,.6c-.24.22-.34-.15-.38.53a1,1,0,0,0-.52-.93c-.28-.18-.55-.36-.48-.52-.46.13-.61-.1-.69-.36-.08.11-.64.48-.69.15,1.27-.43.35-.68,1.31-1-.23.08-.32.05-.39,0s-.12-.4-.7-.24c.12-.2.51,0,.82-.12-.24-.2-.1-.44.1-.64s.48-.34.57-.62c-.14-.11-.42-.17-.56-.43a7.15,7.15,0,0,1,.9.27c0-.13-.69-.76-.09-.51-.12-.08-.32-.19-.3-.3A6.45,6.45,0,0,0,7,5a2,2,0,0,1,2.37.07c-.28-.29-.15-.35,0-.39-.12-.06-.08-.43-.14-.66l.78.54c0-.68.74-.14.74-.78L10.58,4c.22-.78-.63-1.59-.73-2.54-.22.88-1.18-1.1-1.58.22-.18-.16.05-.32-.07-.52-.07.43-.23.55-.63.46v-.1c-1,.37-1.52.1-2.81.45l.3.38a1,1,0,0,1-.56-.07c.08.77.69-.34.81.5-.37-.35-.8-.12-1.21.14s-.78.53-1.25.22c-.34.31.47.31.14.61l-.29-.12.2.34a.77.77,0,0,1-.82-.12c.07,0,.09-.21.13-.28-.55.07-.64,1-.8,1l.42-.28c-.28.6-.67,1.21-.92,1.91A3,3,0,0,0,.86,8.38l.23-.09A1.27,1.27,0,0,1,1.22,9a1.25,1.25,0,0,0,.07,1.11l-.06,0a1.17,1.17,0,0,1,.57.61c-.36-.13-.21.69-.64.5.48.4.63.44.8.44a6,6,0,0,1,.85-.09l-.18.35c.4-.07.52-.17.92,0-.5,0-.14.63-.76.65a.94.94,0,0,0,1,.79c.37,0,.62,0,.61.68.84-.72-.57-.91-.23-1,0-.39.68-.49.89-.3s0,1.44.93,1.62c-.09,0-.11.06-.2,0,.31.32.7-.23,1.1.2.24-.6.57,0,.59-.77a5.35,5.35,0,0,1-.79.19,2.41,2.41,0,0,0,.67-.59.66.66,0,0,1,.8-.2,1.1,1.1,0,0,1-.31.55c.26.19.38-.22.64-.05.08.4-.17.5-.48.57a1.57,1.57,0,0,0-.94.4c.29.34,1-.64.79.24.14-.57.35-.58.64-.57s.61,0,.74-.5l.14.45c.07-.11.17-.39.34-.46,0,.23,0,.47-.07.7.16-.34.42-.35.72-.35s.62,0,.76-.28c-.91.63-.52-.33-1.07-.4.35-.58.63-.42,1-.26a.92.92,0,0,0,1.29-.3c-.1.2-.73.33-.66-.05a2.16,2.16,0,0,1,.93-.23c.54-.82-.47-.2-.44-.69.65.11.08-.5.11-.9l.42.26c.77-.74-.74-.71,0-1.29a7.41,7.41,0,0,1,.45.61c0-.17,0-.33,0-.5l.47.3c-.18-.65,0-.74.25-1.21-.36,0-.82-.28-.76-.69.33-.27.44.26.45-.43.29.17.64.44.14.66.15.05.27.2.42.26.4-.27.23-1,.24-1.23a.64.64,0,0,1-.14.3,5.89,5.89,0,0,0-.64-1c.18-.17.33-.07.47,0-.05-.21-.3-.33-.36-.62.39,0,.79-.09,1,.38a10.26,10.26,0,0,0-.56-1c.16-.11.32-.67.49-.58,0-.35-.28-.66-.6-.93a2,2,0,0,1-.76-.93A.46.46,0,0,1,13,3.42l-.07-.14c-.33-.54-.61-1.29-1.6-1.22a6,6,0,0,0-.12-.82c-.38-.05-.3.21-.3.46s-.09.47-.63.44c-.8,0-.06-.63-.27-.88-.56.25-1.28.93-1.93.45C8.28,1.54,8.47,1.64,8.7,1.58Zm-6,5.54c-.07-.16-.25-.56.07-.62C3.21,6.8,2.89,6.86,2.65,7.12Zm6.56,2.4c.06.22-.09.31-.29.28A.36.36,0,0,1,9.21,9.52Zm-5.74-.2,0,0C3.32,9.24,3.39,9.28,3.47,9.32Zm.21.06a.77.77,0,0,0-.19-.08c.11,0,.12.06.08.06C3.68,9.41,3.77,9.44,3.68,9.38Zm2.94,1.19,0,.13C6.5,10.83,6.56,10.7,6.62,10.57Z" fill="#fff"/><path d="M8.77,11.16a.74.74,0,0,1-.14-.23C8.62,11.05,8.65,11.15,8.77,11.16Z" fill="#fff"/><path d="M13.28,3.49l0,0s0,0,.08,0Z" fill="#fff"/><path d="M1.36,6.78a.5.5,0,0,1,.28-.16A.22.22,0,0,0,1.36,6.78Z" fill="#fff"/><path d="M6.88,10.24l0-.05,0,0Z" fill="#fff"/><path d="M8.05,10.92c0-.07.06-.07,0-.14l-.18-.13C7.81,10.78,7.86,11,8.05,10.92Z" fill="#fff"/><path d="M6.77,10.38c-.07.1-.13.21-.11.21v0l0,.07v0A.82.82,0,0,1,6.77,10.38Z" fill="#fff"/><path d="M6.65,10.66v0Z" fill="#fff"/><path d="M6.18,10.44l-.06-.08a.4.4,0,0,1,.08.12L4,9.42H4L6.2,10.48Z" fill="#fff"/><path d="M6.22,11.56a3.39,3.39,0,0,1,.17-.48,2.7,2.7,0,0,1-.28.31Z" fill="#fff"/><path d="M5.78,10.32a.55.55,0,0,0-.11.23.26.26,0,0,1,.18,0C5.81,10.42,5.93,10.33,5.78,10.32Z" fill="#fff"/><path d="M5.85,10.57A.14.14,0,0,0,6,10.7.36.36,0,0,0,5.85,10.57Z" fill="#fff"/><path d="M5.76,11.42v-.15a1.32,1.32,0,0,1-.12-.2A1.82,1.82,0,0,0,5.76,11.42Z" fill="#fff"/><path d="M4.06,11a.44.44,0,0,1-.24,0c-.13.12-.12.25,0,.26S4.05,11.15,4.06,11Z" fill="#fff"/><path d="M5.49,11.86c-.18,0-.25-.08-.4-.18l.32.53C5.44,12.09,5.47,12,5.49,11.86Z" fill="#fff"/><path d="M3.75,12.46c-.08.21-1.39-.05-.28.4C3.65,12.75,4.47,12.7,3.75,12.46Z" fill="#fff"/><polygon points="3.13 6.47 3.13 6.57 4.13 6.72 3.13 6.47" fill="#fff"/><path d="M4.62,0c-.66.07.1.65-.5.65,0,.29.48,0,.44.27C4.76.5,5,.56,4.62,0Z" fill="#fff"/><path d="M4.56.92a1.85,1.85,0,0,0-.09.23A.79.79,0,0,0,4.56.92Z" fill="#fff"/><polygon points="10.58 5.06 10.85 5.24 10.65 4.92 10.58 5.06" fill="#fff"/><path d="M11,4.25l.14.64.08-.6S11,4.39,11,4.25Z" fill="#fff"/><path d="M1.05,8.5l.16,0c.18-.1.2-.22.26-.46C1.32,8.2,1.19,8.35,1.05,8.5Z" fill="#fff"/><path d="M5.05,2.26,5,2.32l.45.4Z" fill="#fff"/><path d="M10.69.57c-.22-.1-.55,0-.78-.09C10.48.47,10.47,1.28,10.69.57Z" fill="#fff"/></svg>