<svg xmlns="http://www.w3.org/2000/svg" width="57.927" height="51.965" viewBox="0 0 57.927 51.965">
  <g id="logo" transform="translate(-135.254 -101.699)">
    <path id="Path_1" data-name="Path 1" d="M361.328,316.37h14.932a3.079,3.079,0,0,0,2.583-4.617L371.2,298.088a2.938,2.938,0,0,0-5.2.055h0l-.02-.036h0l.02.036-7.662,13.788C357.248,313.982,359.06,316.37,361.328,316.37Z" transform="translate(-186.067 -162.754)" fill="#fb0"/>
    <path id="Path_2" data-name="Path 2" d="M180.994,128.756a4.122,4.122,0,0,1-.489,1.952,3.9,3.9,0,0,1-6.875.072l-6.3-10.869a3.9,3.9,0,0,0-6.836,0L142.625,151.64a3.93,3.93,0,0,1-3.418,2.023,4.047,4.047,0,0,1-3.417-6.07l24.7-43.871a3.9,3.9,0,0,1,6.836,0l13.141,23.011A4.122,4.122,0,0,1,180.994,128.756Z" transform="translate(0 0)" fill="#fff"/>
  </g>
</svg>
