<svg xmlns="http://www.w3.org/2000/svg" width="821.732" height="702.405" viewBox="0 0 821.732 702.405">
  <g id="design_element" data-name="design element" transform="translate(507.771 -219.231)" opacity="0.45">
    <path id="Path_5" data-name="Path 5" d="M459.157,901.448H914.875c70.069,0,113.859-78.277,78.824-140.9L760.4,343.515c-35.446-63.36-124.37-62.425-158.558,1.669h0l-.619-1.1h0l.619,1.1L368.011,765.969C334.623,828.571,389.92,901.448,459.157,901.448Z" transform="translate(-694.57 17.688)" fill="none" stroke="#fb0" stroke-width="5" opacity="0.5"/>
    <path id="Path_4" data-name="Path 4" d="M459.157,901.448H914.875c70.069,0,113.859-78.277,78.824-140.9L760.4,343.515c-35.446-63.36-124.37-62.425-158.558,1.669h0l-.619-1.1h0l.619,1.1L368.011,765.969C334.623,828.571,389.92,901.448,459.157,901.448Z" transform="translate(-774.078 -27.418)" fill="none" stroke="#fb0" stroke-width="5" opacity="0.75"/>
    <path id="Path_3" data-name="Path 3" d="M459.157,901.448H914.875c70.069,0,113.859-78.277,78.824-140.9L760.4,343.515c-35.446-63.36-124.37-62.425-158.558,1.669h0l-.619-1.1h0l.619,1.1L368.011,765.969C334.623,828.571,389.92,901.448,459.157,901.448Z" transform="translate(-865.785 -77.318)" fill="#fb0"/>
  </g>
</svg>
