<svg width="218" height="27" viewBox="0 0 218 27" fill="none" xmlns="http://www.w3.org/2000/svg">
<path d="M215.182 5.33882H217.373V1.52282C216.314 1.40642 215.248 1.34999 214.182 1.35382C211.019 1.35382 208.855 3.34082 208.855 6.99282V10.3538H205.369V14.6198H208.855V25.3538H213.129V14.6208H216.474L217.005 10.3538H213.128V7.41582C213.128 6.18282 213.461 5.33882 215.179 5.33882H215.182Z" fill="#212121"/>
<path d="M182.363 24.354H182.369V15.554C182.369 11.248 181.442 7.93098 176.408 7.93098C175.463 7.89583 174.526 8.1179 173.697 8.5735C172.868 9.0291 172.178 9.70115 171.701 10.518H171.631V8.32998H166.858V24.354H171.828V16.419C171.828 14.33 172.228 12.31 174.811 12.31C177.36 12.31 177.398 14.694 177.398 16.553V24.354H182.363Z" fill="#212121"/>
<path d="M158.769 8.33093H163.741V24.3539H158.769V8.33093Z" fill="#212121"/>
<path d="M161.251 0.353937C160.676 0.350379 160.113 0.517886 159.633 0.835169C159.154 1.15245 158.779 1.60518 158.557 2.13582C158.336 2.66645 158.277 3.25103 158.388 3.81524C158.499 4.37946 158.776 4.89784 159.183 5.30449C159.589 5.71114 160.108 5.98771 160.672 6.09903C161.236 6.21035 161.821 6.15141 162.351 5.92969C162.882 5.70796 163.335 5.33348 163.652 4.85383C163.969 4.37418 164.137 3.81102 164.133 3.23594C164.133 2.47166 163.829 1.73877 163.289 1.19835C162.748 0.657926 162.015 0.354202 161.251 0.353937V0.353937Z" fill="#212121"/>
<path d="M135.271 9.52788C135.252 8.51619 135.06 7.51523 134.704 6.56788C134.39 5.75729 133.91 5.02113 133.296 4.40643C132.681 3.79172 131.945 3.31199 131.134 2.99788C130.187 2.64272 129.186 2.45099 128.174 2.43088C126.867 2.36788 126.452 2.35388 123.14 2.35388C119.828 2.35388 119.412 2.36788 118.111 2.42588C117.1 2.4456 116.099 2.63734 115.151 2.99288C114.336 3.2993 113.597 3.78096 112.988 4.40388C112.368 5.01321 111.888 5.74983 111.58 6.56288C111.225 7.51035 111.033 8.51124 111.013 9.52288C110.951 10.8289 110.937 11.2439 110.937 14.5539C110.937 17.8639 110.951 18.2819 111.009 19.5829C111.029 20.5946 111.221 21.5955 111.576 22.5429C111.89 23.3535 112.37 24.0897 112.985 24.7044C113.599 25.3191 114.336 25.7988 115.146 26.1129C116.094 26.468 117.095 26.6598 118.106 26.6799C119.406 26.7369 119.822 26.7519 123.135 26.7519C126.448 26.7519 126.863 26.7379 128.164 26.6799C129.176 26.6603 130.177 26.4685 131.124 26.1129C131.935 25.7993 132.672 25.3198 133.286 24.705C133.901 24.0902 134.381 23.3538 134.694 22.5429C135.049 21.5954 135.241 20.5945 135.261 19.5829C135.318 18.2829 135.333 17.8669 135.333 14.5539C135.333 11.2409 135.333 10.8259 135.271 9.52488V9.52788ZM133.071 19.4909C133.063 20.2642 132.921 21.0302 132.651 21.7549C132.448 22.2813 132.137 22.7593 131.738 23.1583C131.339 23.5573 130.861 23.8685 130.334 24.0719C129.609 24.3409 128.843 24.4827 128.07 24.4909C126.783 24.5479 126.397 24.5629 123.141 24.5629C119.885 24.5629 119.494 24.5489 118.212 24.4909C117.439 24.4832 116.673 24.3414 115.948 24.0719C115.419 23.8772 114.941 23.5658 114.548 23.1609C114.144 22.7677 113.833 22.2894 113.637 21.7609C113.368 21.036 113.226 20.27 113.218 19.4969C113.161 18.2099 113.146 17.8239 113.146 14.5679C113.146 11.3119 113.16 10.9209 113.218 9.63888C113.226 8.86521 113.369 8.09883 113.639 7.37388C113.834 6.84364 114.147 6.3648 114.554 5.97388C114.947 5.57019 115.426 5.2593 115.954 5.06388C116.679 4.79459 117.445 4.6525 118.218 4.64388C119.505 4.58688 119.891 4.57188 123.147 4.57188C126.403 4.57188 126.794 4.58588 128.076 4.64388C128.85 4.65194 129.616 4.79404 130.34 5.06388C130.869 5.25821 131.348 5.56924 131.74 5.97388C132.144 6.36706 132.455 6.84532 132.651 7.37388C132.921 8.09874 133.063 8.86466 133.071 9.63788C133.128 10.9249 133.143 11.3109 133.143 14.5669C133.143 17.8229 133.129 18.2039 133.071 19.4909Z" fill="#212121"/>
<path d="M123.139 8.28894C121.9 8.28894 120.688 8.65655 119.657 9.34529C118.626 10.034 117.823 11.013 117.348 12.1583C116.874 13.3036 116.75 14.5639 116.992 15.7798C117.234 16.9956 117.831 18.1125 118.707 18.9891C119.584 19.8657 120.701 20.4626 121.916 20.7045C123.132 20.9464 124.393 20.8222 125.538 20.3478C126.683 19.8734 127.662 19.07 128.351 18.0393C129.04 17.0085 129.407 15.7966 129.407 14.5569C129.407 12.8947 128.746 11.3007 127.571 10.1254C126.395 8.95002 124.801 8.28947 123.139 8.28894V8.28894ZM123.139 18.6229C122.335 18.6229 121.549 18.3845 120.88 17.9377C120.212 17.4909 119.69 16.8559 119.383 16.1129C119.075 15.37 118.994 14.5524 119.151 13.7637C119.308 12.975 119.696 12.2505 120.264 11.6818C120.833 11.1132 121.557 10.726 122.346 10.5691C123.135 10.4122 123.952 10.4927 124.695 10.8004C125.438 11.1082 126.073 11.6293 126.52 12.298C126.967 12.9666 127.205 13.7528 127.205 14.5569C127.205 15.6352 126.777 16.6693 126.014 17.4317C125.252 18.1942 124.218 18.6227 123.139 18.6229V18.6229Z" fill="#212121"/>
<path d="M131.12 8.04089C131.12 8.3302 131.035 8.61301 130.874 8.85358C130.713 9.09414 130.485 9.28167 130.217 9.39243C129.95 9.50319 129.656 9.53221 129.372 9.47585C129.088 9.41948 128.828 9.28024 128.623 9.07574C128.418 8.87123 128.279 8.61064 128.223 8.32691C128.166 8.04318 128.195 7.74906 128.305 7.48171C128.416 7.21437 128.603 6.9858 128.844 6.82493C129.084 6.66405 129.367 6.57808 129.656 6.57788C130.044 6.57788 130.417 6.73199 130.691 7.00632C130.966 7.28066 131.12 7.65278 131.12 8.04089Z" fill="#212121"/>
<path d="M65.7054 12.4104C66.3794 12.096 66.985 11.6518 67.4874 11.1034C68.2438 10.14 68.6267 8.93572 68.5654 7.71238C68.5991 6.45617 68.224 5.22297 67.4964 4.19838C66.307 2.60305 64.291 1.78505 61.4484 1.74438H50.1724V24.7644H60.6854C61.793 24.7728 62.8986 24.6693 63.9854 24.4554C64.9395 24.2724 65.8404 23.8773 66.6214 23.2994C67.2838 22.8084 67.8448 22.1938 68.2734 21.4894C68.9713 20.394 69.3332 19.1181 69.3144 17.8194C69.3501 16.6304 69.0339 15.4573 68.4054 14.4474C67.755 13.4888 66.8056 12.7725 65.7054 12.4104V12.4104ZM54.8234 5.74138H59.9024C60.8351 5.71654 61.766 5.83767 62.6614 6.10038C63.0718 6.27278 63.4155 6.5732 63.6413 6.95686C63.8671 7.34051 63.9629 7.78686 63.9144 8.22938C63.9543 8.62049 63.8871 9.01511 63.7199 9.37095C63.5527 9.72679 63.2919 10.0304 62.9654 10.2494C62.2094 10.6591 61.3565 10.8565 60.4974 10.8204H54.8234V5.74138ZM62.8544 20.3614C62.105 20.6672 61.2978 20.8057 60.4894 20.7674H54.8234V14.6294H60.5724C61.369 14.6019 62.1631 14.7335 62.9084 15.0164C63.3834 15.2208 63.7823 15.5693 64.0486 16.0127C64.3149 16.4561 64.4351 16.972 64.3924 17.4874C64.4551 18.066 64.3419 18.6501 64.0676 19.1633C63.7932 19.6766 63.3704 20.0952 62.8544 20.3644V20.3614Z" fill="#212121"/>
<path d="M84.2994 2.81738H74.3004V5.68238H84.2994V2.81738Z" fill="#212121"/>
<path d="M87.7734 14.1233C87.5939 12.8591 87.122 11.6542 86.3954 10.6043C85.6635 9.49786 84.6301 8.62409 83.4174 8.08632C82.1362 7.53555 80.7527 7.26288 79.3584 7.28631C78.224 7.24241 77.0925 7.42891 76.0322 7.83453C74.9719 8.24015 74.0048 8.85649 73.1894 9.64631C71.606 11.2203 70.814 13.4826 70.8134 16.4333C70.8134 19.5793 71.692 21.8503 73.4494 23.2463C75.1691 24.6311 77.3186 25.3714 79.5264 25.3393C80.7224 25.4094 81.9197 25.2245 83.0389 24.797C84.1581 24.3694 85.1737 23.709 86.0184 22.8593C86.8909 22.0393 87.4767 20.9606 87.6894 19.7823H83.0824C82.8549 20.2316 82.5385 20.6301 82.1524 20.9533C81.4354 21.4967 80.5511 21.7722 79.6524 21.7323C78.7784 21.758 77.915 21.5354 77.1624 21.0903C76.5759 20.7 76.1009 20.164 75.784 19.5348C75.467 18.9056 75.319 18.2049 75.3544 17.5013H87.9254C87.9628 16.3731 87.912 15.2436 87.7734 14.1233V14.1233ZM75.4664 14.5643C75.5734 13.5803 75.9942 12.6568 76.6664 11.9303C77.0256 11.5936 77.4496 11.3335 77.9126 11.1658C78.3756 10.9982 78.8678 10.9266 79.3594 10.9553C80.3338 10.9246 81.2859 11.2503 82.0374 11.8713C82.4102 12.2148 82.709 12.6308 82.9154 13.0939C83.1217 13.557 83.2313 14.0574 83.2374 14.5643H75.4664Z" fill="#212121"/>
<path d="M13.691 0.353882C6.24859 0.353882 0.213074 6.41298 0.213074 13.8874C0.213074 19.8657 4.07499 24.9374 9.43316 26.7285C10.1071 26.8532 10.3531 26.4353 10.3531 26.0764C10.3531 25.7546 10.3413 24.9037 10.3346 23.7748C6.58558 24.592 5.79365 21.9601 5.79365 21.9601C5.18201 20.3964 4.29741 19.9803 4.29741 19.9803C3.07244 19.1411 4.3884 19.158 4.3884 19.158C5.74142 19.254 6.45247 20.5531 6.45247 20.5531C7.65553 22.6206 9.60839 22.0241 10.3767 21.677C10.498 20.8025 10.8468 20.206 11.2327 19.8674C8.24021 19.5253 5.09271 18.3644 5.09271 13.1798C5.09271 11.7021 5.61841 10.4939 6.48111 9.547C6.34126 9.20496 5.87958 7.82835 6.61254 5.96647C6.61254 5.96647 7.74483 5.60252 10.3194 7.35319C11.3944 7.05327 12.547 6.90331 13.6944 6.89825C14.8385 6.90499 15.9927 7.05327 17.0694 7.35488C19.6423 5.60421 20.7729 5.96816 20.7729 5.96816C21.5076 7.83172 21.0459 9.20664 20.9077 9.54869C21.7721 10.4956 22.2927 11.7037 22.2927 13.1815C22.2927 18.3795 19.1419 19.5236 16.1393 19.8589C16.6229 20.2768 17.0542 21.1024 17.0542 22.3645C17.0542 24.1741 17.0374 25.6333 17.0374 26.0764C17.0374 26.4387 17.28 26.8599 17.9641 26.7268C23.3138 24.934 27.1724 19.864 27.1724 13.8874C27.1724 6.41298 21.1369 0.353882 13.691 0.353882Z" fill="black"/>
</svg>
