<svg width="218" height="27" viewBox="0 0 218 27" fill="none" xmlns="http://www.w3.org/2000/svg">
<path d="M215.182 5.38069H217.373V1.56469C216.314 1.44829 215.248 1.39186 214.182 1.39569C211.019 1.39569 208.855 3.38269 208.855 7.03469V10.3957H205.369V14.6617H208.855V25.3957H213.129V14.6627H216.474L217.005 10.3957H213.128V7.45769C213.128 6.22469 213.461 5.38069 215.179 5.38069H215.182Z" fill="white"/>
<path d="M182.363 24.3958H182.369V15.5958C182.369 11.2898 181.442 7.97285 176.408 7.97285C175.463 7.93771 174.526 8.15977 173.697 8.61537C172.868 9.07097 172.178 9.74302 171.701 10.5598H171.631V8.37185H166.858V24.3958H171.828V16.4608C171.828 14.3718 172.228 12.3518 174.811 12.3518C177.36 12.3518 177.398 14.7358 177.398 16.5948V24.3958H182.363Z" fill="white"/>
<path d="M158.769 8.3728H163.741V24.3958H158.769V8.3728Z" fill="white"/>
<path d="M161.251 0.395807C160.676 0.392249 160.113 0.559756 159.633 0.877039C159.154 1.19432 158.779 1.64705 158.557 2.17769C158.336 2.70832 158.277 3.2929 158.388 3.85711C158.499 4.42133 158.776 4.93971 159.183 5.34636C159.589 5.75301 160.108 6.02958 160.672 6.1409C161.236 6.25222 161.821 6.19328 162.351 5.97156C162.882 5.74983 163.335 5.37535 163.652 4.8957C163.969 4.41605 164.137 3.85289 164.133 3.27781C164.133 2.51353 163.829 1.78064 163.289 1.24022C162.748 0.699796 162.015 0.396073 161.251 0.395807V0.395807Z" fill="white"/>
<path d="M135.271 9.56975C135.252 8.55806 135.06 7.5571 134.704 6.60975C134.39 5.79916 133.91 5.063 133.296 4.4483C132.681 3.83359 131.945 3.35386 131.134 3.03975C130.187 2.68459 129.186 2.49286 128.174 2.47275C126.867 2.40975 126.452 2.39575 123.14 2.39575C119.828 2.39575 119.412 2.40975 118.111 2.46775C117.1 2.48747 116.099 2.67921 115.151 3.03475C114.336 3.34117 113.597 3.82283 112.988 4.44575C112.368 5.05508 111.888 5.7917 111.58 6.60475C111.225 7.55222 111.033 8.55311 111.013 9.56475C110.951 10.8708 110.937 11.2858 110.937 14.5958C110.937 17.9058 110.951 18.3238 111.009 19.6248C111.029 20.6364 111.221 21.6374 111.576 22.5848C111.89 23.3954 112.37 24.1316 112.985 24.7463C113.599 25.361 114.336 25.8407 115.146 26.1548C116.094 26.5099 117.095 26.7016 118.106 26.7218C119.406 26.7788 119.822 26.7938 123.135 26.7938C126.448 26.7938 126.863 26.7798 128.164 26.7218C129.176 26.7021 130.177 26.5104 131.124 26.1548C131.935 25.8412 132.672 25.3616 133.286 24.7469C133.901 24.1321 134.381 23.3957 134.694 22.5848C135.049 21.6372 135.241 20.6364 135.261 19.6248C135.318 18.3248 135.333 17.9088 135.333 14.5958C135.333 11.2828 135.333 10.8678 135.271 9.56675V9.56975ZM133.071 19.5328C133.063 20.306 132.921 21.072 132.651 21.7968C132.448 22.3231 132.137 22.8012 131.738 23.2002C131.339 23.5992 130.861 23.9104 130.334 24.1138C129.609 24.3828 128.843 24.5245 128.07 24.5328C126.783 24.5898 126.397 24.6048 123.141 24.6048C119.885 24.6048 119.494 24.5908 118.212 24.5328C117.439 24.5251 116.673 24.3833 115.948 24.1138C115.419 23.919 114.941 23.6077 114.548 23.2028C114.144 22.8096 113.833 22.3313 113.637 21.8028C113.368 21.0778 113.226 20.3119 113.218 19.5388C113.161 18.2518 113.146 17.8658 113.146 14.6098C113.146 11.3538 113.16 10.9628 113.218 9.68075C113.226 8.90708 113.369 8.1407 113.639 7.41575C113.834 6.88551 114.147 6.40667 114.554 6.01575C114.947 5.61206 115.426 5.30117 115.954 5.10575C116.679 4.83646 117.445 4.69437 118.218 4.68575C119.505 4.62875 119.891 4.61375 123.147 4.61375C126.403 4.61375 126.794 4.62775 128.076 4.68575C128.85 4.69381 129.616 4.83591 130.34 5.10575C130.869 5.30008 131.348 5.61111 131.74 6.01575C132.144 6.40893 132.455 6.88719 132.651 7.41575C132.921 8.14061 133.063 8.90653 133.071 9.67975C133.128 10.9668 133.143 11.3528 133.143 14.6088C133.143 17.8648 133.129 18.2458 133.071 19.5328Z" fill="white"/>
<path d="M123.139 8.33081C121.9 8.33081 120.688 8.69842 119.657 9.38716C118.626 10.0759 117.823 11.0548 117.348 12.2001C116.874 13.3455 116.75 14.6058 116.992 15.8216C117.234 17.0375 117.831 18.1544 118.707 19.031C119.584 19.9076 120.701 20.5045 121.916 20.7464C123.132 20.9882 124.393 20.8641 125.538 20.3897C126.683 19.9153 127.662 19.1119 128.351 18.0811C129.04 17.0504 129.407 15.8385 129.407 14.5988C129.407 12.9366 128.746 11.3426 127.571 10.1673C126.395 8.99189 124.801 8.33134 123.139 8.33081V8.33081ZM123.139 18.6648C122.335 18.6648 121.549 18.4263 120.88 17.9796C120.212 17.5328 119.69 16.8978 119.383 16.1548C119.075 15.4118 118.994 14.5943 119.151 13.8056C119.308 13.0168 119.696 12.2924 120.264 11.7237C120.833 11.1551 121.557 10.7678 122.346 10.6109C123.135 10.4541 123.952 10.5346 124.695 10.8423C125.438 11.1501 126.073 11.6712 126.52 12.3399C126.967 13.0085 127.205 13.7946 127.205 14.5988C127.205 15.6771 126.777 16.7112 126.014 17.4736C125.252 18.2361 124.218 18.6645 123.139 18.6648V18.6648Z" fill="white"/>
<path d="M131.12 8.08263C131.12 8.37195 131.035 8.65476 130.874 8.89532C130.713 9.13589 130.485 9.32341 130.217 9.43417C129.95 9.54493 129.656 9.57396 129.372 9.51759C129.088 9.46122 128.828 9.32199 128.623 9.11749C128.418 8.91298 128.279 8.65239 128.223 8.36866C128.166 8.08493 128.195 7.79081 128.305 7.52346C128.416 7.25611 128.603 7.02755 128.844 6.86668C129.084 6.7058 129.367 6.61983 129.656 6.61963C130.044 6.61963 130.417 6.77374 130.691 7.04807C130.966 7.32241 131.12 7.69453 131.12 8.08263Z" fill="white"/>
<path d="M65.7054 12.4523C66.3794 12.1378 66.985 11.6937 67.4874 11.1452C68.2438 10.1819 68.6267 8.97759 68.5654 7.75425C68.5991 6.49804 68.224 5.26484 67.4964 4.24025C66.307 2.64492 64.291 1.82692 61.4484 1.78625H50.1724V24.8063H60.6854C61.793 24.8147 62.8986 24.7112 63.9854 24.4973C64.9395 24.3143 65.8404 23.9192 66.6214 23.3413C67.2838 22.8503 67.8448 22.2356 68.2734 21.5312C68.9713 20.4358 69.3332 19.16 69.3144 17.8613C69.3501 16.6723 69.0339 15.4992 68.4054 14.4893C67.755 13.5307 66.8056 12.8144 65.7054 12.4523V12.4523ZM54.8234 5.78325H59.9024C60.8351 5.75841 61.766 5.87954 62.6614 6.14225C63.0718 6.31465 63.4155 6.61507 63.6413 6.99873C63.8671 7.38238 63.9629 7.82873 63.9144 8.27125C63.9543 8.66236 63.8871 9.05698 63.7199 9.41282C63.5527 9.76866 63.2919 10.0723 62.9654 10.2913C62.2094 10.701 61.3565 10.8983 60.4974 10.8623H54.8234V5.78325ZM62.8544 20.4033C62.105 20.7091 61.2978 20.8476 60.4894 20.8092H54.8234V14.6712H60.5724C61.369 14.6438 62.1631 14.7754 62.9084 15.0583C63.3834 15.2627 63.7823 15.6112 64.0486 16.0546C64.3149 16.498 64.4351 17.0138 64.3924 17.5293C64.4551 18.1079 64.3419 18.692 64.0676 19.2052C63.7932 19.7185 63.3704 20.1371 62.8544 20.4062V20.4033Z" fill="white"/>
<path d="M84.2994 2.85925H74.3004V5.72425H84.2994V2.85925Z" fill="white"/>
<path d="M87.7734 14.1653C87.5939 12.9011 87.122 11.6962 86.3954 10.6463C85.6635 9.53985 84.6301 8.66608 83.4174 8.12831C82.1362 7.57754 80.7527 7.30487 79.3584 7.32831C78.224 7.2844 77.0925 7.4709 76.0322 7.87652C74.9719 8.28215 74.0048 8.89848 73.1894 9.68831C71.606 11.2623 70.814 13.5246 70.8134 16.4753C70.8134 19.6213 71.692 21.8923 73.4494 23.2883C75.1691 24.6731 77.3186 25.4134 79.5264 25.3813C80.7224 25.4514 81.9197 25.2665 83.0389 24.839C84.1581 24.4114 85.1737 23.7509 86.0184 22.9013C86.8909 22.0813 87.4767 21.0026 87.6894 19.8243H83.0824C82.8549 20.2736 82.5385 20.6721 82.1524 20.9953C81.4354 21.5386 80.5511 21.8142 79.6524 21.7743C78.7784 21.8 77.915 21.5774 77.1624 21.1323C76.5759 20.742 76.1009 20.206 75.784 19.5768C75.467 18.9476 75.319 18.2469 75.3544 17.5433H87.9254C87.9628 16.4151 87.912 15.2856 87.7734 14.1653V14.1653ZM75.4664 14.6063C75.5734 13.6223 75.9942 12.6988 76.6664 11.9723C77.0256 11.6356 77.4496 11.3754 77.9126 11.2078C78.3756 11.0402 78.8678 10.9686 79.3594 10.9973C80.3338 10.9666 81.2859 11.2923 82.0374 11.9133C82.4102 12.2568 82.709 12.6728 82.9154 13.1359C83.1217 13.599 83.2313 14.0994 83.2374 14.6063H75.4664Z" fill="white"/>
<path d="M13.691 0.395752C6.24859 0.395752 0.213074 6.45485 0.213074 13.9293C0.213074 19.9075 4.07499 24.9793 9.43316 26.7704C10.1071 26.8951 10.3531 26.4772 10.3531 26.1183C10.3531 25.7965 10.3413 24.9456 10.3346 23.8166C6.58558 24.6338 5.79365 22.0019 5.79365 22.0019C5.18201 20.4383 4.29741 20.0221 4.29741 20.0221C3.07244 19.183 4.3884 19.1999 4.3884 19.1999C5.74142 19.2959 6.45247 20.595 6.45247 20.595C7.65553 22.6624 9.60839 22.066 10.3767 21.7189C10.498 20.8444 10.8468 20.2479 11.2327 19.9092C8.24021 19.5672 5.09271 18.4062 5.09271 13.2216C5.09271 11.7439 5.61841 10.5358 6.48111 9.58887C6.34126 9.24683 5.87958 7.87022 6.61254 6.00834C6.61254 6.00834 7.74483 5.64439 10.3194 7.39506C11.3944 7.09514 12.547 6.94518 13.6944 6.94012C14.8385 6.94686 15.9927 7.09514 17.0694 7.39675C19.6423 5.64608 20.7729 6.01003 20.7729 6.01003C21.5076 7.87359 21.0459 9.24851 20.9077 9.59056C21.7721 10.5375 22.2927 11.7456 22.2927 13.2233C22.2927 18.4214 19.1419 19.5655 16.1393 19.9008C16.6229 20.3187 17.0542 21.1443 17.0542 22.4063C17.0542 24.216 17.0374 25.6752 17.0374 26.1183C17.0374 26.4806 17.28 26.9018 17.9641 26.7687C23.3138 24.9759 27.1724 19.9059 27.1724 13.9293C27.1724 6.45485 21.1369 0.395752 13.691 0.395752Z" fill="white"/>
</svg>
