<svg xmlns="http://www.w3.org/2000/svg" width="167.396" height="26.401" viewBox="0 0 167.396 26.401">
  <g id="social_media" data-name="social media" transform="translate(-140 -889)">
    <g id="_003-behance" data-name="003-behance" transform="translate(140 793.021)">
      <g id="Group_14" data-name="Group 14" transform="translate(0 95.979)">
        <g id="Group_13" data-name="Group 13" transform="translate(0 0)">
          <path id="Path_10" data-name="Path 10" d="M15.533,106.646a5.663,5.663,0,0,0,1.782-1.307,5.079,5.079,0,0,0,1.078-3.391,5.8,5.8,0,0,0-1.069-3.514q-1.784-2.393-6.048-2.454H0V119H10.513a16.439,16.439,0,0,0,3.3-.309,6.484,6.484,0,0,0,2.636-1.156,6.382,6.382,0,0,0,1.652-1.81,6.65,6.65,0,0,0,1.041-3.67,6.038,6.038,0,0,0-.909-3.372A5.244,5.244,0,0,0,15.533,106.646ZM4.651,99.977H9.73a8.953,8.953,0,0,1,2.759.359,2.065,2.065,0,0,1,1.253,2.129,2.167,2.167,0,0,1-.949,2.02,4.76,4.76,0,0,1-2.468.571H4.651Zm8.031,14.62a5.562,5.562,0,0,1-2.365.406H4.651v-6.138H10.4a6,6,0,0,1,2.336.387,2.468,2.468,0,0,1,1.484,2.471A2.893,2.893,0,0,1,12.682,114.6Z" transform="translate(0 -95.979)" fill="#212121"/>
          <rect id="Rectangle_11" data-name="Rectangle 11" width="9.999" height="2.865" transform="translate(24.128 1.074)" fill="#212121"/>
          <path id="Path_11" data-name="Path 11" d="M296.833,178.013a8.212,8.212,0,0,0-1.378-3.519,6.947,6.947,0,0,0-2.978-2.518,9.858,9.858,0,0,0-4.059-.8,8.4,8.4,0,0,0-6.169,2.36q-2.375,2.361-2.376,6.787,0,4.719,2.636,6.813a9.47,9.47,0,0,0,6.077,2.093,8.457,8.457,0,0,0,6.492-2.48,5.584,5.584,0,0,0,1.671-3.077h-4.607a3.715,3.715,0,0,1-.93,1.171,3.856,3.856,0,0,1-2.5.779,4.625,4.625,0,0,1-2.49-.642,4.066,4.066,0,0,1-1.808-3.589h12.571A21.662,21.662,0,0,0,296.833,178.013Zm-12.307.441a4.613,4.613,0,0,1,1.2-2.634,3.628,3.628,0,0,1,2.693-.975,4.006,4.006,0,0,1,2.678.916,3.722,3.722,0,0,1,1.2,2.693Z" transform="translate(-259.232 -165.633)" fill="#212121"/>
        </g>
      </g>
    </g>
    <path id="_001-facebook" data-name="001-facebook" d="M16,3.985h2.191V.169A28.292,28.292,0,0,0,15,0C11.837,0,9.673,1.987,9.673,5.639V9H6.187v4.266H9.673V24h4.274V13.267h3.345L17.823,9H13.946V6.062c0-1.233.333-2.077,2.051-2.077Z" transform="translate(241.813 890)" fill="#212121"/>
    <g id="_002-linkedin" data-name="002-linkedin" transform="translate(201 889)">
      <path id="Path_7" data-name="Path 7" d="M23.994,24H24V15.2c0-4.306-.927-7.623-5.961-7.623a5.226,5.226,0,0,0-4.707,2.587h-.07V7.976H8.489V24h4.97V16.065c0-2.089.4-4.109,2.983-4.109,2.549,0,2.587,2.384,2.587,4.243V24Z" fill="#212121"/>
      <path id="Path_8" data-name="Path 8" d="M.4,7.977H5.372V24H.4Z" fill="#212121"/>
      <path id="Path_9" data-name="Path 9" d="M2.882,0A2.9,2.9,0,1,0,5.764,2.882,2.883,2.883,0,0,0,2.882,0Z" fill="#212121"/>
    </g>
    <g id="_004-instagram" data-name="004-instagram" transform="translate(282.552 891)">
      <path id="Path_12" data-name="Path 12" d="M24.783,7.174a8.916,8.916,0,0,0-.567-2.96,6.251,6.251,0,0,0-3.57-3.57,8.939,8.939,0,0,0-2.96-.567C16.379.014,15.964,0,12.652,0S8.924.014,7.623.072a8.919,8.919,0,0,0-2.96.567A5.954,5.954,0,0,0,2.5,2.05,6.008,6.008,0,0,0,1.092,4.209a8.94,8.94,0,0,0-.567,2.96C.463,8.475.449,8.89.449,12.2s.014,3.728.072,5.029a8.916,8.916,0,0,0,.567,2.96,6.25,6.25,0,0,0,3.57,3.57,8.94,8.94,0,0,0,2.96.567c1.3.057,1.716.072,5.029.072s3.728-.014,5.029-.072a8.914,8.914,0,0,0,2.96-.567,6.241,6.241,0,0,0,3.57-3.57,8.946,8.946,0,0,0,.567-2.96c.057-1.3.072-1.716.072-5.029s0-3.728-.062-5.029Zm-2.2,9.963a6.688,6.688,0,0,1-.42,2.264,4.048,4.048,0,0,1-2.317,2.317,6.712,6.712,0,0,1-2.264.419c-1.287.057-1.673.072-4.929.072s-3.647-.014-4.929-.072a6.685,6.685,0,0,1-2.264-.419,3.755,3.755,0,0,1-1.4-.911,3.794,3.794,0,0,1-.911-1.4,6.713,6.713,0,0,1-.419-2.264c-.057-1.287-.072-1.673-.072-4.929s.014-3.647.072-4.929A6.685,6.685,0,0,1,3.151,5.02a3.709,3.709,0,0,1,.915-1.4,3.788,3.788,0,0,1,1.4-.91,6.716,6.716,0,0,1,2.264-.42c1.287-.057,1.673-.072,4.929-.072s3.647.014,4.929.072a6.688,6.688,0,0,1,2.264.42,3.752,3.752,0,0,1,1.4.91,3.793,3.793,0,0,1,.911,1.4,6.715,6.715,0,0,1,.42,2.264c.057,1.287.072,1.673.072,4.929s-.014,3.637-.072,4.924Zm0,0" fill="#212121"/>
      <path id="Path_13" data-name="Path 13" d="M131.217,124.5a6.268,6.268,0,1,0,6.268,6.268A6.27,6.27,0,0,0,131.217,124.5Zm0,10.334a4.066,4.066,0,1,1,4.066-4.066A4.067,4.067,0,0,1,131.217,134.834Zm0,0" transform="translate(-118.566 -118.565)" fill="#212121"/>
      <path id="Path_14" data-name="Path 14" d="M365.377,90.065a1.463,1.463,0,1,1-1.464-1.463A1.464,1.464,0,0,1,365.377,90.065Zm0,0" transform="translate(-344.745 -84.378)" fill="#212121"/>
    </g>
  </g>
</svg>
