<svg xmlns="http://www.w3.org/2000/svg" viewBox="0 0 839.98 839.99"><text transform="translate(262.91 85.34) rotate(-21.92)" font-size="60" fill="#fb0" font-family="Montserrat-Regular, Montserrat">V</text><text transform="matrix(0.95, -0.3, 0.3, 0.95, 299.59, 70.96)" font-size="60" fill="#fb0" font-family="Montserrat-Regular, Montserrat">I</text><text transform="translate(315.24 65.5) rotate(-13.3)" font-size="60" fill="#fb0" font-family="Montserrat-Regular, Montserrat">E</text><text transform="translate(350.85 55.93) rotate(-5.52)" font-size="60" fill="#fb0" font-family="Montserrat-Regular, Montserrat">W</text><text transform="translate(414.92 50.88) rotate(0.93)" font-size="60" fill="#fb0" font-family="Montserrat-Regular, Montserrat"> </text><text transform="translate(429.29 50.49) rotate(4.72)" font-size="60" fill="#fb0" font-family="Montserrat-Regular, Montserrat">C</text><text transform="translate(469.03 53.59) rotate(10.89)" font-size="60" fill="#fb0" font-family="Montserrat-Regular, Montserrat">A</text><text transform="matrix(0.96, 0.29, -0.29, 0.96, 509.15, 61.36)" font-size="60" fill="#fb0" font-family="Montserrat-Regular, Montserrat">S</text><text transform="matrix(0.92, 0.38, -0.38, 0.92, 542.58, 71.26)" font-size="60" fill="#fb0" font-family="Montserrat-Regular, Montserrat">E</text><text transform="translate(578.11 86.39) rotate(26.63)" font-size="60" fill="#fb0" font-family="Montserrat-Regular, Montserrat"> </text><text transform="matrix(0.86, 0.51, -0.51, 0.86, 591.09, 92.45)" font-size="60" fill="#fb0" font-family="Montserrat-Regular, Montserrat">S</text><text transform="matrix(0.81, 0.58, -0.58, 0.81, 620.79, 109.88)" font-size="60" fill="#fb0" font-family="Montserrat-Regular, Montserrat">T</text><text transform="translate(646.67 127.84) rotate(41.51)" font-size="60" fill="#fb0" font-family="Montserrat-Regular, Montserrat">U</text><text transform="matrix(0.66, 0.75, -0.75, 0.66, 680.51, 157.51)" font-size="60" fill="#fb0" font-family="Montserrat-Regular, Montserrat">D</text><text transform="translate(710.56 191.73) rotate(54.75)" font-size="60" fill="#fb0" font-family="Montserrat-Regular, Montserrat">Y</text><text transform="matrix(0.52, 0.85, -0.85, 0.52, 731.45, 221.87)" font-size="60" fill="#fb0" font-family="Montserrat-Regular, Montserrat"> </text><text transform="translate(739.18 234.56) rotate(61.01)" font-size="60" fill="#fb0" font-family="Montserrat-Regular, Montserrat"> </text><text transform="matrix(0.45, 0.89, -0.89, 0.45, 746.4, 247.55)" font-size="60" fill="#fb0" font-family="Montserrat-Regular, Montserrat"> </text><text transform="matrix(0.41, 0.91, -0.91, 0.41, 753.09, 260.83)" font-size="60" fill="#fb0" font-family="Montserrat-Regular, Montserrat"> </text><text transform="translate(759.45 273.56) rotate(69.91)" font-size="60" fill="#fb0" font-family="Montserrat-Regular, Montserrat">V</text><text transform="matrix(0.27, 0.96, -0.96, 0.27, 772.65, 310.66)" font-size="60" fill="#fb0" font-family="Montserrat-Regular, Montserrat">I</text><text transform="translate(777.61 326.48) rotate(78.52)" font-size="60" fill="#fb0" font-family="Montserrat-Regular, Montserrat">E</text><text transform="translate(786.04 362.39) rotate(86.28)" font-size="60" fill="#fb0" font-family="Montserrat-Regular, Montserrat">W</text><text transform="translate(789.01 426.77) rotate(92.23)" font-size="60" fill="#fb0" font-family="Montserrat-Regular, Montserrat"> </text><text transform="translate(789.03 440.96) rotate(96.52)" font-size="60" fill="#fb0" font-family="Montserrat-Regular, Montserrat">C</text><text transform="matrix(-0.22, 0.98, -0.98, -0.22, 784.69, 480.55)" font-size="60" fill="#fb0" font-family="Montserrat-Regular, Montserrat">A</text><text transform="translate(775.65 520.43) rotate(108.62)" font-size="60" fill="#fb0" font-family="Montserrat-Regular, Montserrat">S</text><text transform="translate(764.68 553.52) rotate(114.32)" font-size="60" fill="#fb0" font-family="Montserrat-Regular, Montserrat">E</text><text transform="translate(748.43 588.56) rotate(118.44)" font-size="60" fill="#fb0" font-family="Montserrat-Regular, Montserrat"> </text><text transform="translate(741.96 601.34) rotate(122.31)" font-size="60" fill="#fb0" font-family="Montserrat-Regular, Montserrat">S</text><text transform="matrix(-0.61, 0.79, -0.79, -0.61, 723.59, 630.49)" font-size="60" fill="#fb0" font-family="Montserrat-Regular, Montserrat">T</text><text transform="translate(704.83 655.79) rotate(133.31)" font-size="60" fill="#fb0" font-family="Montserrat-Regular, Montserrat">U</text><text transform="translate(674.11 688.68) rotate(140.4)" font-size="60" fill="#fb0" font-family="Montserrat-Regular, Montserrat">D</text><text transform="translate(638.98 717.63) rotate(146.55)" font-size="60" fill="#fb0" font-family="Montserrat-Regular, Montserrat">Y</text><text transform="translate(608.21 737.55) rotate(150.51)" font-size="60" fill="#fb0" font-family="Montserrat-Regular, Montserrat"> </text><text transform="translate(595.27 744.89) rotate(152.82)" font-size="60" fill="#fb0" font-family="Montserrat-Regular, Montserrat"> </text><text transform="matrix(-0.92, 0.39, -0.39, -0.92, 582.89, 751.86)" font-size="60" fill="#fb0" font-family="Montserrat-Regular, Montserrat">V</text><text transform="translate(546.46 766.88) rotate(161.38)" font-size="60" fill="#fb0" font-family="Montserrat-Regular, Montserrat">I</text><text transform="translate(530.91 772.62) rotate(165.69)" font-size="60" fill="#fb0" font-family="Montserrat-Regular, Montserrat">E</text><text transform="translate(495.5 782.8) rotate(173.48)" font-size="60" fill="#fb0" font-family="Montserrat-Regular, Montserrat">W</text><text transform="translate(431.17 788.85) rotate(179.07)" font-size="60" fill="#fb0" font-family="Montserrat-Regular, Montserrat"> </text><text transform="matrix(-1, -0.07, 0.07, -1, 417.14, 789.61)" font-size="60" fill="#fb0" font-family="Montserrat-Regular, Montserrat">C</text><text transform="matrix(-0.99, -0.17, 0.17, -0.99, 377.36, 787.19)" font-size="60" fill="#fb0" font-family="Montserrat-Regular, Montserrat">A</text><text transform="translate(337.09 780.13) rotate(-164.21)" font-size="60" fill="#fb0" font-family="Montserrat-Regular, Montserrat">S</text><text transform="translate(303.51 770.82) rotate(-158.5)" font-size="60" fill="#fb0" font-family="Montserrat-Regular, Montserrat">E</text><text transform="matrix(-0.9, -0.43, 0.43, -0.9, 267.71, 756.31)" font-size="60" fill="#fb0" font-family="Montserrat-Regular, Montserrat"> </text><text transform="translate(254.63 750.48) rotate(-150.5)" font-size="60" fill="#fb0" font-family="Montserrat-Regular, Montserrat">S</text><text transform="matrix(-0.82, -0.57, 0.57, -0.82, 224.62, 733.57)" font-size="60" fill="#fb0" font-family="Montserrat-Regular, Montserrat">T</text><text transform="matrix(-0.76, -0.65, 0.65, -0.76, 198.44, 716.06)" font-size="60" fill="#fb0" font-family="Montserrat-Regular, Montserrat">U</text><text transform="matrix(-0.67, -0.74, 0.74, -0.67, 164.09, 686.99)" font-size="60" fill="#fb0" font-family="Montserrat-Regular, Montserrat">D</text><text transform="translate(133.45 653.28) rotate(-126.24)" font-size="60" fill="#fb0" font-family="Montserrat-Regular, Montserrat">Y</text><text transform="matrix(-0.53, -0.85, 0.85, -0.53, 112.05, 623.53)" font-size="60" fill="#fb0" font-family="Montserrat-Regular, Montserrat"> </text><text transform="translate(104.09 610.97) rotate(-119.99)" font-size="60" fill="#fb0" font-family="Montserrat-Regular, Montserrat"> </text><text transform="translate(96.64 598.09) rotate(-117.68)" font-size="60" fill="#fb0" font-family="Montserrat-Regular, Montserrat"> </text><text transform="translate(89.56 585.77) rotate(-113.43)" font-size="60" fill="#fb0" font-family="Montserrat-Regular, Montserrat">V</text><text transform="translate(74.22 549.48) rotate(-109.12)" font-size="60" fill="#fb0" font-family="Montserrat-Regular, Montserrat">I</text><text transform="translate(68.35 533.98) rotate(-104.81)" font-size="60" fill="#fb0" font-family="Montserrat-Regular, Montserrat">E</text><text transform="translate(57.85 498.66) rotate(-97.02)" font-size="60" fill="#fb0" font-family="Montserrat-Regular, Montserrat">W</text><text transform="translate(51.19 434.56) rotate(-91.02)" font-size="60" fill="#fb0" font-family="Montserrat-Regular, Montserrat"> </text><text transform="matrix(0.06, -1, 1, 0.06, 50.37, 420.39)" font-size="60" fill="#fb0" font-family="Montserrat-Regular, Montserrat">C</text><text transform="translate(52.44 380.57) rotate(-80.61)" font-size="60" fill="#fb0" font-family="Montserrat-Regular, Montserrat">A</text><text transform="translate(59.15 340.24) rotate(-74.71)" font-size="60" fill="#fb0" font-family="Montserrat-Regular, Montserrat">S</text><text transform="matrix(0.36, -0.93, 0.93, 0.36, 68.16, 306.58)" font-size="60" fill="#fb0" font-family="Montserrat-Regular, Montserrat">E</text><text transform="translate(82.36 270.65) rotate(-64.88)" font-size="60" fill="#fb0" font-family="Montserrat-Regular, Montserrat"> </text><text transform="translate(88.08 257.51) rotate(-61)" font-size="60" fill="#fb0" font-family="Montserrat-Regular, Montserrat">S</text><text transform="matrix(0.56, -0.83, 0.83, 0.56, 104.72, 227.37)" font-size="60" fill="#fb0" font-family="Montserrat-Regular, Montserrat">T</text><text transform="translate(122 201.03) rotate(-49.98)" font-size="60" fill="#fb0" font-family="Montserrat-Regular, Montserrat">U</text><text transform="translate(150.78 166.43) rotate(-42.89)" font-size="60" fill="#fb0" font-family="Montserrat-Regular, Montserrat">D</text><text transform="translate(184.21 135.5) rotate(-36.74)" font-size="60" fill="#fb0" font-family="Montserrat-Regular, Montserrat">Y</text></svg>