<svg xmlns="http://www.w3.org/2000/svg" viewBox="0 0 839.98 839.99"><text transform="translate(263.14 85.42) rotate(-22.4)" font-size="60" fill="#fb0" font-family="Montserrat-Regular, Montserrat">L</text><text transform="translate(293.85 72.53) rotate(-16.82)" font-size="60" fill="#fb0" font-family="Montserrat-Regular, Montserrat">E</text><text transform="translate(330.39 61.53) rotate(-11.3)" font-size="60" fill="#fb0" font-family="Montserrat-Regular, Montserrat">T</text><text transform="matrix(0.99, -0.13, 0.13, 0.99, 364.54, 55.08)" font-size="60" fill="#fb0" font-family="Montserrat-Regular, Montserrat">’</text><text transform="matrix(1, -0.07, 0.07, 1, 376.36, 53.09)" font-size="60" fill="#fb0" font-family="Montserrat-Regular, Montserrat">S</text><text transform="translate(412.12 51.12) rotate(-0.93)" font-size="60" fill="#fb0" font-family="Montserrat-Regular, Montserrat"> </text><text transform="translate(426.21 50.65) rotate(3.58)" font-size="60" fill="#fb0" font-family="Montserrat-Regular, Montserrat">T</text><text transform="translate(456.59 52.16) rotate(8.94)" font-size="60" fill="#fb0" font-family="Montserrat-Regular, Montserrat">A</text><text transform="translate(497 58.6) rotate(14.73)" font-size="60" fill="#fb0" font-family="Montserrat-Regular, Montserrat">L</text><text transform="translate(529.27 66.79) rotate(20.51)" font-size="60" fill="#fb0" font-family="Montserrat-Regular, Montserrat">K</text><text transform="translate(567.57 81.59) rotate(24.82)" font-size="60" fill="#fb0" font-family="Montserrat-Regular, Montserrat"> </text><text transform="matrix(0.89, 0.46, -0.46, 0.89, 581.06, 87.81)" font-size="60" fill="#fb0" font-family="Montserrat-Regular, Montserrat"> </text><text transform="translate(594.32 94.59) rotate(29.46)" font-size="60" fill="#fb0" font-family="Montserrat-Regular, Montserrat"> </text><text transform="matrix(0.85, 0.53, -0.53, 0.85, 607.27, 101.88)" font-size="60" fill="#fb0" font-family="Montserrat-Regular, Montserrat"> </text><text transform="translate(619.94 109.71) rotate(34.07)" font-size="60" fill="#fb0" font-family="Montserrat-Regular, Montserrat"> </text><text transform="matrix(0.79, 0.61, -0.61, 0.79, 632.03, 117.45)" font-size="60" fill="#fb0" font-family="Montserrat-Regular, Montserrat">L</text><text transform="translate(658.52 137.73) rotate(43.32)" font-size="60" fill="#fb0" font-family="Montserrat-Regular, Montserrat">E</text><text transform="matrix(0.66, 0.75, -0.75, 0.66, 686.26, 163.95)" font-size="60" fill="#fb0" font-family="Montserrat-Regular, Montserrat">T</text><text transform="translate(708.91 190.35) rotate(52.46)" font-size="60" fill="#fb0" font-family="Montserrat-Regular, Montserrat">’</text><text transform="matrix(0.56, 0.83, -0.83, 0.56, 716.53, 199.58)" font-size="60" fill="#fb0" font-family="Montserrat-Regular, Montserrat">S</text><text transform="translate(736.02 229.23) rotate(60.05)" font-size="60" fill="#fb0" font-family="Montserrat-Regular, Montserrat"> </text><text transform="translate(743.5 241.52) rotate(63.74)" font-size="60" fill="#fb0" font-family="Montserrat-Regular, Montserrat">T</text><text transform="translate(757.31 268.61) rotate(69.15)" font-size="60" fill="#fb0" font-family="Montserrat-Regular, Montserrat">A</text><text transform="matrix(0.26, 0.97, -0.97, 0.26, 771.78, 306.87)" font-size="60" fill="#fb0" font-family="Montserrat-Regular, Montserrat">L</text><text transform="matrix(0.16, 0.99, -0.99, 0.16, 780.7, 338.94)" font-size="60" fill="#fb0" font-family="Montserrat-Regular, Montserrat">K</text><text transform="translate(786.89 379.57) rotate(85)" font-size="60" fill="#fb0" font-family="Montserrat-Regular, Montserrat"> </text><text transform="matrix(0.05, 1, -1, 0.05, 788.2, 394.39)" font-size="60" fill="#fb0" font-family="Montserrat-Regular, Montserrat"> </text><text transform="translate(788.86 409.44) rotate(89.07)" font-size="60" fill="#fb0" font-family="Montserrat-Regular, Montserrat"> </text><text transform="translate(789.05 424.16) rotate(91.83)" font-size="60" fill="#fb0" font-family="Montserrat-Regular, Montserrat"> </text><text transform="matrix(-0.07, 1, -1, -0.07, 788.59, 439.03)" font-size="60" fill="#fb0" font-family="Montserrat-Regular, Montserrat"> </text><text transform="translate(787.93 453.4) rotate(97.85)" font-size="60" fill="#fb0" font-family="Montserrat-Regular, Montserrat">L</text><text transform="translate(783.59 486.44) rotate(103.42)" font-size="60" fill="#fb0" font-family="Montserrat-Regular, Montserrat">E</text><text transform="matrix(-0.32, 0.95, -0.95, -0.32, 774.7, 523.53)" font-size="60" fill="#fb0" font-family="Montserrat-Regular, Montserrat">T</text><text transform="translate(763.07 556.28) rotate(112.68)" font-size="60" fill="#fb0" font-family="Montserrat-Regular, Montserrat">’</text><text transform="matrix(-0.45, 0.9, -0.9, -0.45, 758.84, 567.49)" font-size="60" fill="#fb0" font-family="Montserrat-Regular, Montserrat">S</text><text transform="matrix(-0.5, 0.86, -0.86, -0.5, 742.77, 599.12)" font-size="60" fill="#fb0" font-family="Montserrat-Regular, Montserrat"> </text><text transform="matrix(-0.56, 0.83, -0.83, -0.56, 735.81, 611.71)" font-size="60" fill="#fb0" font-family="Montserrat-Regular, Montserrat">T</text><text transform="translate(719.12 637.16) rotate(129.35)" font-size="60" fill="#fb0" font-family="Montserrat-Regular, Montserrat">A</text><text transform="translate(693.1 668.76) rotate(135.07)" font-size="60" fill="#fb0" font-family="Montserrat-Regular, Montserrat">L</text><text transform="translate(669.72 692.48) rotate(140.77)" font-size="60" fill="#fb0" font-family="Montserrat-Regular, Montserrat">K</text><text transform="matrix(-0.82, 0.57, -0.57, -0.82, 637.62, 718.12)" font-size="60" fill="#fb0" font-family="Montserrat-Regular, Montserrat"> </text><text transform="translate(625.44 726.66) rotate(147.34)" font-size="60" fill="#fb0" font-family="Montserrat-Regular, Montserrat"> </text><text transform="matrix(-0.86, 0.51, -0.51, -0.86, 612.93, 734.7)" font-size="60" fill="#fb0" font-family="Montserrat-Regular, Montserrat"> </text><text transform="translate(600.1 742.23) rotate(151.97)" font-size="60" fill="#fb0" font-family="Montserrat-Regular, Montserrat"> </text><text transform="translate(586.97 749.24) rotate(154.28)" font-size="60" fill="#fb0" font-family="Montserrat-Regular, Montserrat"> </text><text transform="matrix(-0.93, 0.37, -0.37, -0.93, 574.2, 755.8)" font-size="60" fill="#fb0" font-family="Montserrat-Regular, Montserrat">L</text><text transform="translate(543.37 768.46) rotate(163.64)" font-size="60" fill="#fb0" font-family="Montserrat-Regular, Montserrat">E</text><text transform="matrix(-0.98, 0.19, -0.19, -0.98, 506.74, 779.16)" font-size="60" fill="#fb0" font-family="Montserrat-Regular, Montserrat">T</text><text transform="translate(472.57 785.34) rotate(172.87)" font-size="60" fill="#fb0" font-family="Montserrat-Regular, Montserrat">’</text><text transform="translate(460.73 787.23) rotate(176.59)" font-size="60" fill="#fb0" font-family="Montserrat-Regular, Montserrat">S</text><text transform="translate(425.45 789.12) rotate(-179.07)" font-size="60" fill="#fb0" font-family="Montserrat-Regular, Montserrat"> </text><text transform="matrix(-1, -0.07, 0.07, -1, 410.84, 789.28)" font-size="60" fill="#fb0" font-family="Montserrat-Regular, Montserrat">T</text><text transform="translate(380.49 787.54) rotate(-170.6)" font-size="60" fill="#fb0" font-family="Montserrat-Regular, Montserrat">A</text><text transform="translate(340.13 780.77) rotate(-164.81)" font-size="60" fill="#fb0" font-family="Montserrat-Regular, Montserrat">L</text><text transform="matrix(-0.93, -0.36, 0.36, -0.93, 307.94, 772.33)" font-size="60" fill="#fb0" font-family="Montserrat-Regular, Montserrat">K</text><text transform="matrix(-0.9, -0.43, 0.43, -0.9, 269.75, 757.22)" font-size="60" fill="#fb0" font-family="Montserrat-Regular, Montserrat"> </text><text transform="translate(256.29 750.88) rotate(-152.41)" font-size="60" fill="#fb0" font-family="Montserrat-Regular, Montserrat"> </text><text transform="translate(243.09 744.01) rotate(-150.09)" font-size="60" fill="#fb0" font-family="Montserrat-Regular, Montserrat"> </text><text transform="matrix(-0.85, -0.53, 0.53, -0.85, 230.2, 736.61)" font-size="60" fill="#fb0" font-family="Montserrat-Regular, Montserrat"> </text><text transform="matrix(-0.82, -0.57, 0.57, -0.82, 217.59, 728.69)" font-size="60" fill="#fb0" font-family="Montserrat-Regular, Montserrat"> </text><text transform="translate(205.54 720.84) rotate(-141.74)" font-size="60" fill="#fb0" font-family="Montserrat-Regular, Montserrat">L</text><text transform="translate(179.22 700.35) rotate(-136.22)" font-size="60" fill="#fb0" font-family="Montserrat-Regular, Montserrat">E</text><text transform="translate(151.69 673.91) rotate(-130.78)" font-size="60" fill="#fb0" font-family="Montserrat-Regular, Montserrat">T</text><text transform="matrix(-0.6, -0.8, 0.8, -0.6, 129.27, 647.36)" font-size="60" fill="#fb0" font-family="Montserrat-Regular, Montserrat">’</text><text transform="matrix(-0.55, -0.84, 0.84, -0.55, 121.72, 638.06)" font-size="60" fill="#fb0" font-family="Montserrat-Regular, Montserrat">S</text><text transform="translate(102.46 608.26) rotate(-119.5)" font-size="60" fill="#fb0" font-family="Montserrat-Regular, Montserrat"> </text><text transform="translate(95.08 595.9) rotate(-115.8)" font-size="60" fill="#fb0" font-family="Montserrat-Regular, Montserrat">T</text><text transform="matrix(-0.35, -0.94, 0.94, -0.35, 81.49, 568.72)" font-size="60" fill="#fb0" font-family="Montserrat-Regular, Montserrat">A</text><text transform="translate(67.31 530.31) rotate(-104.59)" font-size="60" fill="#fb0" font-family="Montserrat-Regular, Montserrat">L</text><text transform="translate(58.66 498.19) rotate(-98.83)" font-size="60" fill="#fb0" font-family="Montserrat-Regular, Montserrat">K</text><text transform="matrix(-0.08, -1, 1, -0.08, 52.79, 457.53)" font-size="60" fill="#fb0" font-family="Montserrat-Regular, Montserrat"> </text><text transform="matrix(-0.04, -1, 1, -0.04, 51.59, 442.68)" font-size="60" fill="#fb0" font-family="Montserrat-Regular, Montserrat"> </text><text transform="translate(50.86 428.15) rotate(-89.07)" font-size="60" fill="#fb0" font-family="Montserrat-Regular, Montserrat"> </text><text transform="translate(50.98 412.91) rotate(-87.72)" font-size="60" fill="#fb0" font-family="Montserrat-Regular, Montserrat"> </text><text transform="matrix(0.08, -1, 1, 0.08, 51.55, 398.04)" font-size="60" fill="#fb0" font-family="Montserrat-Regular, Montserrat"> </text><text transform="translate(52.33 383.69) rotate(-81.7)" font-size="60" fill="#fb0" font-family="Montserrat-Regular, Montserrat">L</text><text transform="translate(56.93 350.67) rotate(-76.12)" font-size="60" fill="#fb0" font-family="Montserrat-Regular, Montserrat">E</text><text transform="translate(66.12 313.65) rotate(-70.6)" font-size="60" fill="#fb0" font-family="Montserrat-Regular, Montserrat">T</text><text transform="matrix(0.39, -0.92, 0.92, 0.39, 78, 280.99)" font-size="60" fill="#fb0" font-family="Montserrat-Regular, Montserrat">’</text><text transform="matrix(0.45, -0.89, 0.89, 0.45, 82.32, 269.83)" font-size="60" fill="#fb0" font-family="Montserrat-Regular, Montserrat">S</text><text transform="translate(98.64 238.32) rotate(-59.24)" font-size="60" fill="#fb0" font-family="Montserrat-Regular, Montserrat"> </text><text transform="matrix(0.57, -0.82, 0.82, 0.57, 105.7, 225.78)" font-size="60" fill="#fb0" font-family="Montserrat-Regular, Montserrat">T</text><text transform="translate(122.58 200.48) rotate(-50.2)" font-size="60" fill="#fb0" font-family="Montserrat-Regular, Montserrat">A</text><text transform="matrix(0.71, -0.7, 0.7, 0.71, 148.87, 169.07)" font-size="60" fill="#fb0" font-family="Montserrat-Regular, Montserrat">L</text><text transform="matrix(0.78, -0.63, 0.63, 0.78, 172.41, 145.55)" font-size="60" fill="#fb0" font-family="Montserrat-Regular, Montserrat">K</text></svg>